<?xml version="1.0" encoding="utf-8"?>
<!-- Generator: Adobe Illustrator 28.0.0, SVG Export Plug-In . SVG Version: 6.00 Build 0)  -->
<svg version="1.1" id="레이어_1" xmlns="http://www.w3.org/2000/svg" xmlns:xlink="http://www.w3.org/1999/xlink" x="0px"
	 y="0px" viewBox="0 0 20 20" style="enable-background:new 0 0 20 20;" xml:space="preserve">
<style type="text/css">
	.st0{fill:#243B54;}
</style>
<path class="st0" d="M4.9,14.1c0.8-0.5,1.6-0.9,2.4-1.2s1.7-0.4,2.7-0.4c0.9,0,1.8,0.1,2.7,0.4c0.9,0.3,1.7,0.6,2.4,1.2
	c0.5-0.6,0.8-1.2,1.1-1.9s0.4-1.4,0.4-2.2c0-1.8-0.6-3.3-1.9-4.6c-1.3-1.3-2.8-1.9-4.6-1.9c-1.8,0-3.3,0.6-4.6,1.9
	C4.1,6.7,3.5,8.2,3.5,10c0,0.8,0.1,1.5,0.4,2.2S4.5,13.5,4.9,14.1z M10,11.5c-0.8,0-1.5-0.3-2.1-0.9C7.3,10,7,9.3,7,8.5
	S7.3,7,7.9,6.4C8.5,5.8,9.2,5.5,10,5.5c0.8,0,1.5,0.3,2.1,0.9C12.7,7,13,7.7,13,8.5s-0.3,1.5-0.9,2.1C11.5,11.2,10.8,11.5,10,11.5z
	 M10,18c-1.1,0-2.1-0.2-3.1-0.6s-1.8-1-2.6-1.7c-0.7-0.7-1.3-1.6-1.7-2.6c-0.4-1-0.6-2-0.6-3.1c0-1.1,0.2-2.1,0.6-3.1s1-1.8,1.7-2.5
	S5.9,3,6.9,2.6C7.9,2.2,8.9,2,10,2c1.1,0,2.1,0.2,3.1,0.6s1.8,1,2.5,1.7c0.7,0.7,1.3,1.6,1.7,2.5c0.4,1,0.6,2,0.6,3.1
	c0,1.1-0.2,2.1-0.6,3.1c-0.4,1-1,1.8-1.7,2.6c-0.7,0.7-1.6,1.3-2.5,1.7C12.1,17.8,11.1,18,10,18z M10,16.5c0.7,0,1.4-0.1,2.1-0.3
	c0.7-0.2,1.3-0.6,1.9-1c-0.6-0.4-1.2-0.7-1.9-0.9C11.4,14.1,10.7,14,10,14c-0.7,0-1.4,0.1-2.1,0.3S6.6,14.8,6,15.1
	c0.6,0.4,1.2,0.8,1.9,1C8.6,16.4,9.3,16.5,10,16.5z M10,10c0.4,0,0.8-0.1,1.1-0.4c0.3-0.3,0.4-0.6,0.4-1.1c0-0.4-0.1-0.8-0.4-1.1
	C10.8,7.1,10.4,7,10,7C9.6,7,9.2,7.1,8.9,7.4C8.6,7.7,8.5,8.1,8.5,8.5c0,0.4,0.1,0.8,0.4,1.1C9.2,9.9,9.6,10,10,10z"/>
</svg>
