<?xml version="1.0" encoding="utf-8"?>
<!-- Generator: Adobe Illustrator 28.0.0, SVG Export Plug-In . SVG Version: 6.00 Build 0)  -->
<svg version="1.1" id="레이어_1" xmlns="http://www.w3.org/2000/svg" xmlns:xlink="http://www.w3.org/1999/xlink" x="0px"
	 y="0px" viewBox="0 0 20 20" style="enable-background:new 0 0 20 20;" xml:space="preserve">
<style type="text/css">
	.st0{fill:#243B54;}
</style>
<path class="st0" d="M9,18c-0.2,0-0.3-0.1-0.5-0.2c-0.1-0.1-0.2-0.3-0.3-0.4l-0.3-1.8c-0.3-0.1-0.6-0.3-0.9-0.4
	c-0.3-0.2-0.6-0.4-0.8-0.6l-1.7,0.6c-0.2,0.1-0.3,0.1-0.5,0c-0.2-0.1-0.3-0.2-0.4-0.3l-1-1.7c-0.1-0.2-0.1-0.3-0.1-0.5
	s0.1-0.3,0.2-0.4L4.1,11c0-0.2,0-0.3-0.1-0.5s0-0.3,0-0.5s0-0.4,0-0.5c0-0.2,0-0.3,0.1-0.5L2.7,7.8C2.6,7.7,2.5,7.5,2.5,7.4
	c0-0.2,0-0.3,0.1-0.5l1-1.7C3.7,5,3.8,4.9,4,4.8c0.2-0.1,0.3-0.1,0.5,0l1.7,0.6C6.4,5.2,6.7,5,7,4.8c0.3-0.2,0.6-0.3,0.9-0.4
	l0.3-1.8c0-0.2,0.1-0.3,0.3-0.4C8.7,2.1,8.8,2,9,2h2c0.2,0,0.3,0.1,0.5,0.2c0.1,0.1,0.2,0.3,0.3,0.4l0.3,1.8
	c0.3,0.1,0.6,0.3,0.9,0.4s0.6,0.4,0.8,0.6l1.7-0.6c0.2-0.1,0.3-0.1,0.5,0c0.2,0.1,0.3,0.2,0.4,0.3l1,1.7c0.1,0.2,0.1,0.3,0.1,0.5
	c0,0.2-0.1,0.3-0.2,0.4L15.9,9c0,0.2,0,0.3,0.1,0.5c0,0.2,0,0.3,0,0.5s0,0.4,0,0.5s0,0.3-0.1,0.5l1.4,1.2c0.1,0.1,0.2,0.3,0.2,0.4
	s0,0.3-0.1,0.5l-1,1.7c-0.1,0.2-0.2,0.3-0.4,0.3c-0.2,0.1-0.3,0.1-0.5,0l-1.7-0.6c-0.3,0.2-0.5,0.4-0.8,0.6s-0.6,0.3-0.9,0.4
	l-0.3,1.8c0,0.2-0.1,0.3-0.3,0.4C11.3,17.9,11.2,18,11,18H9z M9.6,16.5h0.8l0.4-2.1c0.5-0.1,1-0.3,1.5-0.5c0.5-0.3,0.9-0.6,1.2-1
	l2,0.7l0.4-0.6l-1.6-1.4c0.1-0.2,0.1-0.5,0.2-0.7s0.1-0.5,0.1-0.8c0-0.3,0-0.5-0.1-0.8c0-0.3-0.1-0.5-0.2-0.7l1.6-1.4l-0.4-0.6
	l-2,0.7c-0.3-0.4-0.7-0.7-1.2-1c-0.5-0.3-1-0.4-1.5-0.5l-0.4-2.1H9.6L9.2,5.6c-0.5,0.1-1,0.3-1.5,0.5c-0.5,0.3-0.9,0.6-1.2,1l-2-0.7
	L4.2,7.1l1.6,1.4C5.7,8.7,5.6,8.9,5.6,9.2c0,0.3-0.1,0.5-0.1,0.8c0,0.3,0,0.5,0.1,0.8c0,0.3,0.1,0.5,0.2,0.7l-1.6,1.4l0.4,0.6l2-0.7
	c0.3,0.4,0.7,0.7,1.2,1c0.5,0.3,1,0.4,1.5,0.5L9.6,16.5z M10,13c0.8,0,1.5-0.3,2.1-0.9c0.6-0.6,0.9-1.3,0.9-2.1
	c0-0.8-0.3-1.5-0.9-2.1C11.5,7.3,10.8,7,10,7C9.2,7,8.5,7.3,7.9,7.9C7.3,8.5,7,9.2,7,10c0,0.8,0.3,1.5,0.9,2.1
	C8.5,12.7,9.2,13,10,13z"/>
</svg>
