<?xml version="1.0" encoding="utf-8"?>
<!-- Generator: Adobe Illustrator 28.0.0, SVG Export Plug-In . SVG Version: 6.00 Build 0)  -->
<svg version="1.1" id="레이어_1" xmlns="http://www.w3.org/2000/svg" xmlns:xlink="http://www.w3.org/1999/xlink" x="0px"
	 y="0px" viewBox="0 0 20 20" style="enable-background:new 0 0 20 20;" xml:space="preserve">
<style type="text/css">
	.st0{fill:#243B54;}
</style>
<path class="st0" d="M8,13c-1.4,0-2.6-0.5-3.5-1.5S3,9.4,3,8s0.5-2.6,1.5-3.5S6.6,3,8,3s2.6,0.5,3.5,1.5S13,6.6,13,8
	c0,0.6-0.1,1.1-0.3,1.6c-0.2,0.5-0.4,1-0.7,1.4l4.5,4.5c0.2,0.2,0.2,0.3,0.2,0.5s-0.1,0.4-0.2,0.5c-0.2,0.2-0.3,0.2-0.5,0.2
	c-0.2,0-0.4-0.1-0.5-0.2L11,12c-0.4,0.3-0.9,0.5-1.4,0.7C9.1,12.9,8.6,13,8,13z M8,11.5c1,0,1.8-0.3,2.5-1c0.7-0.7,1-1.5,1-2.5
	s-0.3-1.8-1-2.5C9.8,4.8,9,4.5,8,4.5s-1.8,0.3-2.5,1S4.5,7,4.5,8s0.3,1.8,1,2.5S7,11.5,8,11.5z"/>
</svg>
