<?xml version="1.0" encoding="utf-8"?>
<!-- Generator: Adobe Illustrator 28.0.0, SVG Export Plug-In . SVG Version: 6.00 Build 0)  -->
<svg version="1.1" id="레이어_1" xmlns="http://www.w3.org/2000/svg" xmlns:xlink="http://www.w3.org/1999/xlink" x="0px"
	 y="0px" viewBox="0 0 20 20" style="enable-background:new 0 0 20 20;" xml:space="preserve">
<style type="text/css">
	.st0{fill:#243B54;}
</style>
<path class="st0" d="M10,12.8c-0.1,0-0.2,0-0.3-0.1c-0.1,0-0.2-0.1-0.2-0.2l-4-4C5.4,8.4,5.3,8.3,5.3,8.1s0.1-0.4,0.2-0.5
	c0.2-0.2,0.3-0.2,0.5-0.2c0.2,0,0.4,0.1,0.5,0.2l3.4,3.4l3.4-3.4c0.2-0.2,0.3-0.2,0.5-0.2s0.4,0.1,0.5,0.2c0.2,0.2,0.2,0.3,0.2,0.5
	c0,0.2-0.1,0.4-0.2,0.5l-4,3.9c-0.1,0.1-0.2,0.1-0.2,0.2C10.2,12.7,10.1,12.8,10,12.8z"/>
</svg>
