<?xml version="1.0" encoding="utf-8"?>
<!-- Generator: Adobe Illustrator 28.0.0, SVG Export Plug-In . SVG Version: 6.00 Build 0)  -->
<svg version="1.1" id="레이어_1" xmlns="http://www.w3.org/2000/svg" xmlns:xlink="http://www.w3.org/1999/xlink" x="0px"
	 y="0px" viewBox="0 0 20 20" style="enable-background:new 0 0 20 20;" xml:space="preserve">
<style type="text/css">
	.st0{fill:#243B54;}
</style>
<path class="st0" d="M4.8,15.5c-0.2,0-0.4-0.1-0.5-0.2C4.1,15.1,4,15,4,14.8c0-0.2,0.1-0.4,0.2-0.5C4.4,14.1,4.5,14,4.8,14H5V9
	c0-1.2,0.4-2.3,1.1-3.2S7.8,4.3,9,4.1V3c0-0.3,0.1-0.5,0.3-0.7C9.5,2.1,9.7,2,10,2c0.3,0,0.5,0.1,0.7,0.3C10.9,2.5,11,2.7,11,3v1.1
	c1.2,0.2,2.1,0.8,2.9,1.7S15,7.8,15,9v5h0.2c0.2,0,0.4,0.1,0.5,0.2c0.1,0.1,0.2,0.3,0.2,0.5c0,0.2-0.1,0.4-0.2,0.5
	c-0.1,0.1-0.3,0.2-0.5,0.2H4.8z M10,18c-0.4,0-0.8-0.1-1.1-0.4c-0.3-0.3-0.4-0.6-0.4-1.1h3c0,0.4-0.1,0.8-0.4,1.1
	C10.8,17.9,10.4,18,10,18z M6.5,14h7V9c0-1-0.3-1.8-1-2.5s-1.5-1-2.5-1c-1,0-1.8,0.3-2.5,1S6.5,8,6.5,9V14z"/>
</svg>
