<?xml version="1.0" encoding="utf-8"?>
<!-- Generator: Adobe Illustrator 28.0.0, SVG Export Plug-In . SVG Version: 6.00 Build 0)  -->
<svg version="1.1" id="레이어_1" xmlns="http://www.w3.org/2000/svg" xmlns:xlink="http://www.w3.org/1999/xlink" x="0px"
	 y="0px" viewBox="0 0 424.5 247.6" style="enable-background:new 0 0 424.5 247.6;" xml:space="preserve">
<style type="text/css">
	.st0{fill:none;stroke:#000000;stroke-width:4;stroke-miterlimit:10;}
</style>
<g>
	<path class="st0" d="M410.6,86.8v14.5c0,11-9,20-20,20h-14.8h-14.8c-11,0-20,9-20,20c0,0,0,29,0,29v29.4c0,10.8-8.8,19.6-19.6,19.6
		h0c-10.8,0-19.6-8.8-19.6-19.6c0,0,0-75.9,0-75.9V22c0-11-9-20-20-20h-5.9c-11,0-20,9-20,20c0,0,0,37.8,0,37.8v33.9
		c0,11-9,20-20,20h-19.4c-11,0-20-9-20-20c0,0,0-8.4,0-8.4v-5.5c0-11-9-20-20-20h-17.3c-11,0-20,9-20,20c0,0,0,113.9,0,113.9v31.9
		c0,11-9,20-20,20h-13.7c-11,0-20-9-20-20v-31.9v-31.9c0-11-9-20-20-20H34.2c-4.4,0-8.5,1.4-11.8,3.9"/>
	<circle cx="13.9" cy="141.9" r="13.9"/>
	<circle cx="86.1" cy="181.4" r="13.9"/>
	<circle cx="168.8" cy="60.1" r="13.9"/>
	<circle cx="225.6" cy="114" r="13.9"/>
	<circle cx="301.3" cy="39" r="13.9"/>
	<circle cx="410.6" cy="86.1" r="13.9"/>
	<circle cx="301.7" cy="181.4" r="13.9"/>
	<circle cx="138.6" cy="204.1" r="13.9"/>
	<circle cx="340.8" cy="176.2" r="13.9"/>
</g>
</svg>
