<?xml version="1.0" encoding="utf-8"?>
<!-- Generator: Adobe Illustrator 28.0.0, SVG Export Plug-In . SVG Version: 6.00 Build 0)  -->
<svg version="1.1" id="레이어_1" xmlns="http://www.w3.org/2000/svg" xmlns:xlink="http://www.w3.org/1999/xlink" x="0px"
	 y="0px" viewBox="0 0 424.5 247.6" style="enable-background:new 0 0 424.5 247.6;" xml:space="preserve">
<path d="M424.5,86.1c0-7.7-6.2-13.9-13.9-13.9s-13.9,6.2-13.9,13.9c0,7,5.2,12.8,11.9,13.8v1.3c0,9.9-8.1,18-18,18h-29.7
	c-12.1,0-22,9.9-22,22v58.5c0,9.7-7.9,17.6-17.6,17.6s-17.6-7.9-17.6-17.6V52.8c6.6-1.1,11.6-6.8,11.6-13.7c0-6.9-5-12.6-11.6-13.7
	V22c0-12.1-9.9-22-22-22h-5.9c-12.1,0-22,9.9-22,22v71.7c0,9.9-8.1,18-18,18h-19.4c-9.9,0-18-8.1-18-18V79.8c0-12.1-9.9-22-22-22
	h-17.3c-12.1,0-22,9.9-22,22v110.4c-7,0.7-12.4,6.7-12.4,13.9s5.4,13.1,12.4,13.9v7.7c0,9.9-8.1,18-18,18h-13.7c-9.9,0-18-8.1-18-18
	v-63.7c0-12.1-9.9-22-22-22H34.2c-2.2,0-4.3,0.3-6.4,0.9c-0.5-7.2-6.5-12.9-13.9-12.9c-7.7,0-13.9,6.2-13.9,13.9s6.2,13.9,13.9,13.9
	c6.6,0,12-4.5,13.5-10.6c2.1-0.9,4.4-1.3,6.7-1.3h31.2c9.9,0,18,8.1,18,18v63.7c0,12.1,9.9,22,22,22h13.7c12.1,0,22-9.9,22-22v-7.8
	c6.5-1.2,11.4-6.9,11.4-13.7s-4.9-12.5-11.4-13.7V79.8c0-9.9,8.1-18,18-18h17.3c9.9,0,18,8.1,18,18v13.9c0,12.1,9.9,22,22,22h19.4
	c12.1,0,22-9.9,22-22V22c0-9.9,8.1-18,18-18h5.9c9.9,0,18,8.1,18,18v3.2c-6.9,0.8-12.3,6.7-12.3,13.8c0,7.1,5.4,13,12.3,13.8v146.8
	c0,11.9,9.7,21.6,21.6,21.6s21.6-9.7,21.6-21.6v-58.5c0-9.9,8.1-18,18-18h29.7c12.1,0,22-9.9,22-22v-1.3
	C419.3,98.9,424.5,93.1,424.5,86.1z"/>
</svg>
