<?xml version="1.0" encoding="utf-8"?>
<!-- Generator: Adobe Illustrator 28.0.0, SVG Export Plug-In . SVG Version: 6.00 Build 0)  -->
<svg version="1.1" id="레이어_1" xmlns="http://www.w3.org/2000/svg" xmlns:xlink="http://www.w3.org/1999/xlink" x="0px"
	 y="0px" viewBox="0 0 20 20" style="enable-background:new 0 0 20 20;" xml:space="preserve">
<style type="text/css">
	.st0{fill:#FFFFFF;}
</style>
<path class="st0" d="M7.7,15h4.5c0.2,0,0.4-0.1,0.5-0.2c0.1-0.1,0.2-0.3,0.2-0.5s-0.1-0.4-0.2-0.5c-0.1-0.1-0.3-0.2-0.5-0.2H7.8
	c-0.2,0-0.4,0.1-0.5,0.2C7.1,13.9,7,14,7,14.2s0.1,0.4,0.2,0.5C7.4,14.9,7.5,15,7.7,15z M7.7,12h4.5c0.2,0,0.4-0.1,0.5-0.2
	c0.1-0.1,0.2-0.3,0.2-0.5s-0.1-0.4-0.2-0.5c-0.1-0.1-0.3-0.2-0.5-0.2H7.8c-0.2,0-0.4,0.1-0.5,0.2C7.1,10.9,7,11,7,11.2
	s0.1,0.4,0.2,0.5C7.4,11.9,7.5,12,7.7,12z M5.5,18c-0.4,0-0.8-0.1-1.1-0.4C4.1,17.3,4,16.9,4,16.5v-13c0-0.4,0.1-0.8,0.4-1.1
	C4.7,2.1,5.1,2,5.5,2h5.9c0.2,0,0.4,0,0.6,0.1c0.2,0.1,0.3,0.2,0.5,0.3l3.1,3.1c0.2,0.2,0.3,0.3,0.3,0.5C16,6.2,16,6.4,16,6.6v9.9
	c0,0.4-0.1,0.8-0.4,1.1C15.3,17.9,15,18,14.5,18H5.5z M11,6.2V3.5H5.5v13h9V7h-2.8c-0.2,0-0.4-0.1-0.5-0.2C11.1,6.6,11,6.5,11,6.2z
	 M5.5,3.5V7V3.5v13V3.5z"/>
</svg>
