<?xml version="1.0" encoding="utf-8"?>
<!-- Generator: Adobe Illustrator 28.0.0, SVG Export Plug-In . SVG Version: 6.00 Build 0)  -->
<svg version="1.1" id="레이어_1" xmlns="http://www.w3.org/2000/svg" xmlns:xlink="http://www.w3.org/1999/xlink" x="0px"
	 y="0px" viewBox="0 0 20 20" style="enable-background:new 0 0 20 20;" xml:space="preserve">
<style type="text/css">
	.st0{fill:#93A2C9;}
</style>
<path class="st0" d="M9.8,17c-0.2,0-0.4-0.1-0.5-0.2C9.1,16.6,9,16.5,9,16.3c0-0.2,0.1-0.4,0.2-0.5c0.1-0.1,0.3-0.2,0.5-0.2h5.8V9.9
	c0-1.5-0.5-2.8-1.6-3.9C12.8,5,11.5,4.4,10,4.4C8.5,4.4,7.2,5,6.1,6S4.5,8.4,4.5,9.9v4c0,0.2-0.1,0.4-0.2,0.5S4,14.7,3.8,14.7H3.5
	c-0.4,0-0.8-0.2-1.1-0.5C2.1,13.9,2,13.5,2,13.1v-1.5c0-0.3,0.1-0.6,0.3-0.9c0.2-0.2,0.4-0.4,0.7-0.5l0.1-1.1
	c0.1-0.9,0.4-1.7,0.8-2.4s0.9-1.4,1.5-2s1.3-1,2.1-1.3C8.3,3.2,9.1,3,10,3c0.9,0,1.7,0.2,2.5,0.5c0.8,0.3,1.5,0.7,2.1,1.3
	c0.6,0.6,1.1,1.2,1.5,2c0.4,0.8,0.7,1.6,0.8,2.4l0.1,1.1c0.3,0.1,0.5,0.2,0.7,0.4c0.2,0.2,0.3,0.5,0.3,0.8v1.8
	c0,0.3-0.1,0.6-0.3,0.8s-0.4,0.4-0.7,0.4v1c0,0.4-0.1,0.8-0.4,1.1c-0.3,0.3-0.6,0.4-1.1,0.4H9.8z M7.8,11.5c-0.2,0-0.4-0.1-0.5-0.2
	C7.1,11.1,7,11,7,10.8c0-0.2,0.1-0.4,0.2-0.5C7.4,10.1,7.5,10,7.7,10c0.2,0,0.4,0.1,0.5,0.2c0.1,0.1,0.2,0.3,0.2,0.5
	c0,0.2-0.1,0.4-0.2,0.5C8.1,11.4,8,11.5,7.8,11.5z M12.3,11.5c-0.2,0-0.4-0.1-0.5-0.2c-0.1-0.1-0.2-0.3-0.2-0.5
	c0-0.2,0.1-0.4,0.2-0.5c0.1-0.1,0.3-0.2,0.5-0.2c0.2,0,0.4,0.1,0.5,0.2c0.1,0.1,0.2,0.3,0.2,0.5c0,0.2-0.1,0.4-0.2,0.5
	C12.6,11.4,12.5,11.5,12.3,11.5z M5.5,10.5C5.4,9.1,5.8,7.9,6.7,7c0.9-1,2-1.5,3.4-1.5c1.1,0,2.1,0.4,3,1.1s1.3,1.7,1.4,2.9
	c-1.2,0-2.3-0.3-3.2-1C10.3,7.9,9.5,7,9,6C8.8,7,8.4,7.9,7.8,8.7C7.2,9.4,6.4,10,5.5,10.5z"/>
</svg>
