<?xml version="1.0" encoding="utf-8"?>
<!-- Generator: Adobe Illustrator 28.0.0, SVG Export Plug-In . SVG Version: 6.00 Build 0)  -->
<svg version="1.1" id="레이어_1" xmlns="http://www.w3.org/2000/svg" xmlns:xlink="http://www.w3.org/1999/xlink" x="0px"
	 y="0px" viewBox="0 0 20 20" style="enable-background:new 0 0 20 20;" xml:space="preserve">
<style type="text/css">
	.st0{fill:#93A2C9;}
</style>
<path class="st0" d="M4,15.2V14l1.5-1.5v2.8c0,0.2-0.1,0.4-0.2,0.5C5.1,15.9,5,16,4.8,16c-0.2,0-0.4-0.1-0.5-0.2
	C4.1,15.6,4,15.5,4,15.2z M6.6,15.2v-3.9L8,10l0.1,0.1v5.1c0,0.2-0.1,0.4-0.2,0.5C7.8,15.9,7.6,16,7.4,16c-0.2,0-0.4-0.1-0.5-0.2
	C6.7,15.6,6.6,15.5,6.6,15.2z M9.2,15.2v-4l1.5,1.5v2.5c0,0.2-0.1,0.4-0.2,0.5C10.4,15.9,10.2,16,10,16c-0.2,0-0.4-0.1-0.5-0.2
	C9.3,15.6,9.2,15.5,9.2,15.2z M11.9,15.2v-3.1l1.5-1.5v4.6c0,0.2-0.1,0.4-0.2,0.5C13,15.9,12.8,16,12.6,16c-0.2,0-0.4-0.1-0.5-0.2
	C11.9,15.6,11.9,15.5,11.9,15.2z M14.5,15.2V9.5L16,8v7.3c0,0.2-0.1,0.4-0.2,0.5c-0.1,0.1-0.3,0.2-0.5,0.2c-0.2,0-0.4-0.1-0.5-0.2
	C14.6,15.6,14.5,15.5,14.5,15.2z M4.2,9.8l2.7-2.7C7.2,6.8,7.6,6.6,8,6.6c0.4,0,0.8,0.1,1.1,0.4L11,9l3.7-3.7
	c0.2-0.2,0.3-0.2,0.5-0.2c0.2,0,0.4,0.1,0.6,0.2C15.9,5.4,16,5.6,16,5.8c0,0.2-0.1,0.4-0.2,0.5l-3.7,3.7c-0.3,0.3-0.6,0.4-1.1,0.4
	c-0.4,0-0.8-0.1-1.1-0.4L8,8.1l-2.7,2.7C5.1,11,5,11.1,4.8,11.1c-0.2,0-0.4-0.1-0.6-0.2C4.1,10.7,4,10.5,4,10.3
	C4,10.1,4.1,9.9,4.2,9.8z"/>
</svg>
