<?xml version="1.0" encoding="utf-8"?>
<!-- Generator: Adobe Illustrator 28.0.0, SVG Export Plug-In . SVG Version: 6.00 Build 0)  -->
<svg version="1.1" id="레이어_1" xmlns="http://www.w3.org/2000/svg" xmlns:xlink="http://www.w3.org/1999/xlink" x="0px"
	 y="0px" viewBox="0 0 20 20" style="enable-background:new 0 0 20 20;" xml:space="preserve">
<style type="text/css">
	.st0{fill:#93A2C9;}
</style>
<path class="st0" d="M15.9,17c-1.7-0.1-3.3-0.5-4.8-1.2s-2.9-1.6-4.1-2.8s-2.1-2.5-2.8-4S3.1,5.8,3,4.1c0-0.3,0.1-0.5,0.3-0.8
	C3.5,3.1,3.7,3,4,3h2.8c0.2,0,0.4,0.1,0.6,0.2c0.2,0.1,0.3,0.3,0.3,0.6L8.3,6c0,0.2,0,0.4,0,0.5S8.1,6.8,8,6.9L6,9
	c0.3,0.5,0.6,1,1,1.5c0.4,0.5,0.8,0.9,1.2,1.4C8.6,12.3,9,12.7,9.5,13c0.5,0.4,1,0.7,1.5,0.9l2.1-2c0.1-0.1,0.2-0.2,0.4-0.2
	c0.2,0,0.3-0.1,0.5,0l2.2,0.5c0.2,0.1,0.4,0.2,0.6,0.4c0.1,0.2,0.2,0.4,0.2,0.6V16c0,0.3-0.1,0.5-0.3,0.7C16.4,16.9,16.2,17,15.9,17
	z M5.3,7.5L6.8,6L6.4,4.5H4.5C4.6,5,4.7,5.5,4.8,6S5.1,7,5.3,7.5z M12.5,14.7c0.5,0.2,1,0.4,1.5,0.5c0.5,0.1,1,0.2,1.5,0.3v-1.9
	l-1.6-0.3L12.5,14.7z"/>
</svg>
