<?xml version="1.0" encoding="utf-8"?>
<!-- Generator: Adobe Illustrator 28.0.0, SVG Export Plug-In . SVG Version: 6.00 Build 0)  -->
<svg version="1.1" id="레이어_1" xmlns="http://www.w3.org/2000/svg" xmlns:xlink="http://www.w3.org/1999/xlink" x="0px"
	 y="0px" viewBox="0 0 20 20" style="enable-background:new 0 0 20 20;" xml:space="preserve">
<style type="text/css">
	.st0{fill:#93A2C9;}
</style>
<path class="st0" d="M10,10c-0.8,0-1.5-0.3-2.1-0.9C7.3,8.5,7,7.8,7,7s0.3-1.5,0.9-2.1C8.5,4.3,9.2,4,10,4c0.8,0,1.5,0.3,2.1,0.9
	C12.7,5.5,13,6.2,13,7s-0.3,1.5-0.9,2.1C11.5,9.7,10.8,10,10,10z M4,14.5V14c0-0.3,0.1-0.6,0.3-0.9c0.2-0.3,0.4-0.5,0.7-0.7
	c0.8-0.4,1.6-0.8,2.4-1C8.3,11.1,9.1,11,10,11c0.9,0,1.7,0.1,2.6,0.4c0.9,0.2,1.7,0.6,2.4,1c0.3,0.2,0.5,0.4,0.7,0.7S16,13.7,16,14
	v0.5c0,0.4-0.1,0.8-0.4,1.1c-0.3,0.3-0.6,0.4-1.1,0.4h-9c-0.4,0-0.8-0.1-1.1-0.4C4.1,15.3,4,14.9,4,14.5z M5.5,14.5h9V14
	c0-0.1,0-0.1-0.1-0.2c0-0.1-0.1-0.1-0.2-0.1c-0.6-0.4-1.3-0.7-2-0.9s-1.5-0.3-2.2-0.3c-0.8,0-1.5,0.1-2.2,0.3s-1.4,0.5-2,0.9
	c-0.1,0.1-0.1,0.1-0.2,0.2c0,0.1-0.1,0.1-0.1,0.2V14.5z M10,8.5c0.4,0,0.8-0.1,1.1-0.4c0.3-0.3,0.4-0.6,0.4-1.1
	c0-0.4-0.1-0.8-0.4-1.1c-0.3-0.3-0.6-0.4-1.1-0.4c-0.4,0-0.8,0.1-1.1,0.4C8.6,6.2,8.5,6.6,8.5,7c0,0.4,0.1,0.8,0.4,1.1
	C9.2,8.4,9.6,8.5,10,8.5z"/>
</svg>
