<?xml version="1.0" encoding="utf-8"?>
<!-- Generator: Adobe Illustrator 28.0.0, SVG Export Plug-In . SVG Version: 6.00 Build 0)  -->
<svg version="1.1" id="레이어_1" xmlns="http://www.w3.org/2000/svg" xmlns:xlink="http://www.w3.org/1999/xlink" x="0px"
	 y="0px" viewBox="0 0 20 20" style="enable-background:new 0 0 20 20;" xml:space="preserve">
<style type="text/css">
	.st0{fill:#93A2C9;}
</style>
<path class="st0" d="M3.5,16c-0.4,0-0.8-0.1-1.1-0.4C2.1,15.3,2,14.9,2,14.5v-9c0-0.4,0.1-0.8,0.4-1.1S3.1,4,3.5,4h13
	c0.4,0,0.8,0.1,1.1,0.4S18,5.1,18,5.5v9c0,0.4-0.1,0.8-0.4,1.1S17,16,16.5,16H3.5z M16.5,7.3l-6.1,3.5c-0.1,0-0.1,0.1-0.2,0.1
	s-0.1,0-0.2,0c-0.1,0-0.1,0-0.2,0s-0.1-0.1-0.2-0.1L3.5,7.3v7.2h13V7.3z M10,9.2l6.5-3.7h-13L10,9.2z M3.5,7v0.2V6.1l0,0V5.5v0.6
	l0,0v1.1V7v7.5V7z"/>
</svg>
