<?xml version="1.0" encoding="utf-8"?>
<!-- Generator: Adobe Illustrator 28.0.0, SVG Export Plug-In . SVG Version: 6.00 Build 0)  -->
<svg version="1.1" id="레이어_1" xmlns="http://www.w3.org/2000/svg" xmlns:xlink="http://www.w3.org/1999/xlink" x="0px"
	 y="0px" viewBox="0 0 20 20" style="enable-background:new 0 0 20 20;" xml:space="preserve">
<style type="text/css">
	.st0{fill:#93A2C9;}
</style>
<path class="st0" d="M8.2,3C8,3,7.9,2.9,7.7,2.8C7.6,2.6,7.5,2.5,7.5,2.3c0-0.2,0.1-0.4,0.2-0.5C7.9,1.6,8,1.5,8.2,1.5h3.5
	c0.2,0,0.4,0.1,0.5,0.2c0.1,0.1,0.2,0.3,0.2,0.5c0,0.2-0.1,0.4-0.2,0.5C12.1,2.9,12,3,11.8,3H8.2z M10,12c0.2,0,0.4-0.1,0.5-0.2
	c0.1-0.1,0.2-0.3,0.2-0.5V7.7c0-0.2-0.1-0.4-0.2-0.5C10.4,7.1,10.2,7,10,7C9.8,7,9.6,7.1,9.5,7.2C9.3,7.4,9.2,7.5,9.2,7.7v3.5
	c0,0.2,0.1,0.4,0.2,0.5C9.6,11.9,9.8,12,10,12z M10,18c-1,0-1.9-0.2-2.7-0.6c-0.8-0.4-1.6-0.9-2.2-1.5c-0.6-0.6-1.1-1.4-1.5-2.2
	C3.2,12.9,3,12,3,11s0.2-1.9,0.6-2.7c0.4-0.8,0.9-1.6,1.5-2.2c0.6-0.6,1.4-1.1,2.2-1.5C8.1,4.2,9,4,10,4c0.8,0,1.6,0.1,2.3,0.4
	c0.7,0.3,1.4,0.6,2.1,1.1L15,5c0.1-0.1,0.3-0.2,0.5-0.2c0.2,0,0.4,0.1,0.5,0.2c0.2,0.2,0.2,0.3,0.2,0.5c0,0.2-0.1,0.4-0.2,0.5
	l-0.5,0.6c0.5,0.6,0.9,1.3,1.1,2.1C16.9,9.4,17,10.2,17,11c0,1-0.2,1.9-0.6,2.7c-0.4,0.8-0.9,1.6-1.5,2.2c-0.6,0.6-1.4,1.1-2.2,1.5
	C11.9,17.8,11,18,10,18z M10,16.5c1.5,0,2.8-0.5,3.9-1.6s1.6-2.4,1.6-3.9S15,8.2,13.9,7.1S11.5,5.5,10,5.5S7.2,6,6.1,7.1
	S4.5,9.5,4.5,11s0.5,2.8,1.6,3.9S8.5,16.5,10,16.5z"/>
</svg>
