<?xml version="1.0" encoding="utf-8"?>
<!-- Generator: Adobe Illustrator 28.0.0, SVG Export Plug-In . SVG Version: 6.00 Build 0)  -->
<svg version="1.1" id="레이어_1" xmlns="http://www.w3.org/2000/svg" xmlns:xlink="http://www.w3.org/1999/xlink" x="0px"
	 y="0px" viewBox="0 0 20 20" style="enable-background:new 0 0 20 20;" xml:space="preserve">
<style type="text/css">
	.st0{fill:#93A2C9;}
</style>
<path class="st0" d="M0.8,15c-0.2,0-0.4-0.1-0.5-0.2S0,14.5,0,14.2v-0.5c0-0.7,0.3-1.3,0.9-1.7c0.6-0.4,1.5-0.6,2.6-0.6
	c0.2,0,0.4,0,0.6,0c0.2,0,0.4,0.1,0.6,0.1c-0.2,0.3-0.4,0.6-0.6,0.9C4.1,12.9,4,13.3,4,13.6V15H0.8z M5.8,15c-0.2,0-0.4-0.1-0.5-0.2
	C5.1,14.6,5,14.5,5,14.2v-0.5c0-0.4,0.1-0.7,0.3-1.1c0.2-0.3,0.5-0.6,0.8-0.7c0.6-0.3,1.2-0.5,1.9-0.7c0.7-0.2,1.3-0.2,2-0.2
	c0.7,0,1.4,0.1,2,0.2c0.7,0.2,1.3,0.4,1.9,0.7c0.3,0.2,0.6,0.4,0.8,0.7c0.2,0.3,0.3,0.7,0.3,1.1v0.5c0,0.2-0.1,0.4-0.2,0.5
	c-0.1,0.1-0.3,0.2-0.5,0.2H5.8z M16,15v-1.4c0-0.4-0.1-0.7-0.2-1.1c-0.1-0.3-0.3-0.6-0.6-0.9c0.2,0,0.5-0.1,0.7-0.1
	c0.2,0,0.4,0,0.6,0c1.1,0,1.9,0.2,2.6,0.6c0.6,0.4,0.9,1,0.9,1.7v0.5c0,0.2-0.1,0.4-0.2,0.5c-0.1,0.1-0.3,0.2-0.5,0.2H16z M6.5,13.5
	h6.9c-0.1-0.2-0.5-0.5-1.2-0.7c-0.7-0.2-1.5-0.3-2.2-0.3s-1.5,0.1-2.2,0.3C7.1,13,6.6,13.3,6.5,13.5z M3.5,10.5
	c-0.4,0-0.8-0.1-1.1-0.4C2.1,9.8,2,9.4,2,9c0-0.4,0.1-0.8,0.4-1.1c0.3-0.3,0.6-0.4,1.1-0.4c0.4,0,0.8,0.1,1.1,0.4C4.9,8.2,5,8.6,5,9
	c0,0.4-0.1,0.8-0.4,1.1C4.3,10.4,3.9,10.5,3.5,10.5z M16.5,10.5c-0.4,0-0.8-0.1-1.1-0.4C15.1,9.8,15,9.4,15,9c0-0.4,0.1-0.8,0.4-1.1
	c0.3-0.3,0.6-0.4,1.1-0.4c0.4,0,0.8,0.1,1.1,0.4C17.9,8.2,18,8.6,18,9c0,0.4-0.1,0.8-0.4,1.1C17.3,10.4,16.9,10.5,16.5,10.5z M10,10
	c-0.7,0-1.3-0.2-1.8-0.7C7.7,8.8,7.5,8.2,7.5,7.5s0.2-1.3,0.7-1.8S9.3,5,10,5s1.3,0.2,1.8,0.7s0.7,1.1,0.7,1.8
	c0,0.7-0.2,1.3-0.7,1.8C11.3,9.8,10.7,10,10,10z M10,8.5c0.3,0,0.5-0.1,0.7-0.3C10.9,8,11,7.8,11,7.5c0-0.3-0.1-0.5-0.3-0.7
	c-0.2-0.2-0.4-0.3-0.7-0.3c-0.3,0-0.5,0.1-0.7,0.3C9.1,7,9,7.2,9,7.5C9,7.8,9.1,8,9.3,8.2C9.5,8.4,9.7,8.5,10,8.5z"/>
</svg>
