<?xml version="1.0" encoding="utf-8"?>
<!-- Generator: Adobe Illustrator 28.0.0, SVG Export Plug-In . SVG Version: 6.00 Build 0)  -->
<svg version="1.1" id="레이어_1" xmlns="http://www.w3.org/2000/svg" xmlns:xlink="http://www.w3.org/1999/xlink" x="0px"
	 y="0px" viewBox="0 0 20 20" style="enable-background:new 0 0 20 20;" xml:space="preserve">
<style type="text/css">
	.st0{fill:#93A2C9;}
</style>
<path class="st0" d="M7.4,17c-1.2,0-2.3-0.4-3.1-1.3C3.4,14.9,3,13.8,3,12.6c0-0.6,0.1-1.1,0.3-1.7c0.2-0.5,0.5-1,0.9-1.4l5.3-5.2
	c0.4-0.4,0.9-0.7,1.4-0.9C11.5,3.1,12,3,12.6,3c1.2,0,2.3,0.4,3.1,1.3C16.6,5.1,17,6.2,17,7.4c0,0.6-0.1,1.1-0.3,1.7
	c-0.2,0.5-0.5,1-0.9,1.4l-5.2,5.3c-0.4,0.4-0.9,0.7-1.4,0.9C8.5,16.9,8,17,7.4,17z M12.6,11.5l2.1-2.1c0.3-0.3,0.5-0.6,0.6-0.9
	c0.1-0.3,0.2-0.7,0.2-1.1c0-0.8-0.3-1.5-0.8-2c-0.6-0.6-1.2-0.8-2-0.8c-0.4,0-0.8,0.1-1.1,0.2c-0.3,0.1-0.7,0.3-0.9,0.6L8.5,7.4
	L12.6,11.5z M7.4,15.5c0.4,0,0.8-0.1,1.1-0.2c0.3-0.1,0.7-0.3,0.9-0.6l2.1-2.1L7.4,8.5l-2.1,2.1c-0.3,0.3-0.5,0.6-0.6,0.9
	c-0.1,0.3-0.2,0.7-0.2,1.1c0,0.8,0.3,1.5,0.8,2C5.9,15.2,6.6,15.5,7.4,15.5z"/>
</svg>
